# xmcd
#
# Track frame offsets:
#	150
#	9606
#	19319
#	32872
#	46200
#	57313
#	69002
#	80781
#	92165
#	103499
#	115052
#	123924
#	132959
#	142220
#	152993
#	165834
#	176112
#	186027
#	196806
#	208950
#	219459
#	231514
#	243227
#	256949
#	270785
#	282574
#	295838
#	306940
#	319444
#	329725
#
# Disc length: 4548 seconds
#
# Revision: 0
# Processed by: cddbd v1.5.2PL0 Copyright (c) Steve Scherf et al.
# Submitted via: audiograbber 1.83.01
#
DISCID=cc11c21e
DTITLE=—борник - Ponytails, Hooped Skirts and Bobbysox- Americans Gals Of The '50
DTITLE=s CD3
DYEAR=1900
DGENRE=
TTITLE0=The Fontane Sisters - Hearts Of Stone
TTITLE1=Gizele MacKenzie - Seven Lonely Days
TTITLE2=Teresa Brewer - Till I Waltz Again With You
TTITLE3=Patti Page - Changing Partners
TTITLE4=Gale Storm - I'll Hold You In My Heart
TTITLE5=Teresa Brewer - A Tear Fell
TTITLE6=Rosemary Clooney - Close Your Eyes (Brahms Lullaby)
TTITLE7=Kitty Wells - It Wasn't God Who Made Honky-Tonk Angels
TTITLE8=Patsy Cline - Walkin' After Midnight
TTITLE9=Bonnie Lee - Tennessee Wig Walk
TTITLE10=Ella Mae Morse - Oakie Boogie
TTITLE11=Rosemary Clooney - Come On-A My House
TTITLE12=Brenda Lee - Love You Till I Die
TTITLE13=The Fontane Sisters - Happy Days And Lonely Nights
TTITLE14=Doris Day - If I Give My Heart To You
TTITLE15=Georgia Gibbs - A Moth And A Flame
TTITLE16=Gale Storm - Hold On
TTITLE17=Joan Weber - Let Me Go Lover
TTITLE18=Joni James - You Are My Love
TTITLE19=Mindy Carson - Tell Me You're Mine
TTITLE20=June Hutton - Say You're Mine Again
TTITLE21=The McGuire Sisters - He
TTITLE22=Jo Stafford - Suddenly There's A Valley
TTITLE23=Toni Arden - Too Young
TTITLE24=Cathy Carr - Ivory Tower
TTITLE25=Teresa Brewer - A Sweet Old-Fashioned Girl
TTITLE26=Patti Page - (How Much Is) That Doggie In The Window
TTITLE27=Marlene Dietrich and Rosemary Clooney - Too Old To Cut The Mustard
TTITLE28=Georgia Gibbs - Kiss Me Another
TTITLE29=The McGuire Sisters - Sugartime
EXTD=
EXTT0=
EXTT1=
EXTT2=
EXTT3=
EXTT4=
EXTT5=
EXTT6=
EXTT7=
EXTT8=
EXTT9=
EXTT10=
EXTT11=
EXTT12=
EXTT13=
EXTT14=
EXTT15=
EXTT16=
EXTT17=
EXTT18=
EXTT19=
EXTT20=
EXTT21=
EXTT22=
EXTT23=
EXTT24=
EXTT25=
EXTT26=
EXTT27=
EXTT28=
EXTT29=
PLAYORDER=
